<svg id="email" xmlns="http://www.w3.org/2000/svg" width="27.178" height="20.022" viewBox="0 0 27.178 20.022">
  <g id="Group_156" data-name="Group 156" transform="translate(0 5.647)">
    <g id="Group_155" data-name="Group 155" transform="translate(0 0)">
      <path id="Path_90" data-name="Path 90" d="M14.375,155a1.545,1.545,0,0,1-1.6,0L0,147.2v10.364a4.012,4.012,0,0,0,4.011,4.011H23.167a4.012,4.012,0,0,0,4.011-4.011V147.2Z" transform="translate(0 -147.2)" fill="#fff"/>
    </g>
  </g>
  <g id="Group_158" data-name="Group 158" transform="translate(0.128 0)">
    <g id="Group_157" data-name="Group 157" transform="translate(0 0)">
      <path id="Path_91" data-name="Path 91" d="M25.087,57.088H5.931a3.987,3.987,0,0,0-3.883,3.145l13.477,8.214,13.445-8.214A3.987,3.987,0,0,0,25.087,57.088Z" transform="translate(-2.048 -57.088)" fill="#fff"/>
    </g>
  </g>
</svg>
