<svg id="phone-call" xmlns="http://www.w3.org/2000/svg" width="27.317" height="27.375" viewBox="0 0 27.317 27.375">
  <g id="Group_159" data-name="Group 159" transform="translate(0 0)">
    <path id="Path_92" data-name="Path 92" d="M27.14,20.09l-3.82-3.82a2.541,2.541,0,0,0-4.23.955,2.6,2.6,0,0,1-3,1.637c-2.729-.682-6.412-4.23-7.095-7.095a2.473,2.473,0,0,1,1.637-3,2.541,2.541,0,0,0,.955-4.23L7.766.716a2.725,2.725,0,0,0-3.684,0L1.49,3.309c-2.592,2.729.273,9.96,6.685,16.372S21.819,29.1,24.548,26.366l2.592-2.592A2.725,2.725,0,0,0,27.14,20.09Z" transform="translate(-0.539 0)" fill="#fff"/>
  </g>
</svg>
